<?xml version="1.0" encoding="utf-8"?>
<!-- Generator: Adobe Illustrator 19.2.1, SVG Export Plug-In . SVG Version: 6.00 Build 0)  -->
<svg version="1.1" id="Layer_1" xmlns="http://www.w3.org/2000/svg" xmlns:xlink="http://www.w3.org/1999/xlink" x="0px" y="0px"
	 viewBox="0 0 48 49" style="enable-background:new 0 0 48 49;" xml:space="preserve">
<style type="text/css">
	.st0{fill:#FFFFFF;}
</style>
<title> copy</title>
<desc>Created with Sketch.</desc>
<g id="Page-1">
	<path id="_xF1D8_-copy" class="st0" d="M47.3,1.2c-0.3-0.2-0.6-0.3-1-0.3c-0.3,0-0.6,0.1-0.9,0.2L0.9,26.8C0.3,27.1,0,27.7,0,28.4
		c0.1,0.7,0.5,1.2,1.1,1.5l10.6,4.3L40.3,9.4L17.1,37.8v9.3c0,0.7,0.5,1.4,1.1,1.6c0.2,0.1,0.4,0.1,0.6,0.1c0.5,0,1-0.2,1.3-0.6
		l6.5-7.9l12.1,5c0.2,0.1,0.4,0.1,0.6,0.1c0.3,0,0.6-0.1,0.8-0.2c0.5-0.3,0.8-0.7,0.9-1.2L48,2.9C48.1,2.2,47.8,1.6,47.3,1.2
		L47.3,1.2z"/>
</g>
</svg>
